HIERARCHY
ROOT HipCenter
{
    OFFSET 0.0 0.0 -0.0
    CHANNELS 6 Xposition Yposition Zposition Zrotation Xrotation Yrotation
    JOINT Spine
    {
        OFFSET 0.0 10.638886451721191 0.0
        CHANNELS 3 Zrotation Xrotation Yrotation
        JOINT ShoulderCenter
        {
            OFFSET 0.0 28.7485408782959 0.0
            CHANNELS 3 Zrotation Xrotation Yrotation
            JOINT LeftShoulder
            {
                OFFSET 16.908462524414062 0.0 0.0
                CHANNELS 3 Zrotation Xrotation Yrotation
                JOINT LeftElbow
                {
                    OFFSET 25.48190689086914 0.0 0.0
                    CHANNELS 3 Zrotation Xrotation Yrotation
                    JOINT LeftWrist
                    {
                        OFFSET 25.959964752197266 0.0 0.0
                        CHANNELS 3 Zrotation Xrotation Yrotation
                        JOINT LeftHand
                        {
                            OFFSET 2.8886895179748535 0.0 0.0
                            CHANNELS 3 Zrotation Xrotation Yrotation
                            End Site
                            {
                                OFFSET 1.1554758548736572 0.0 0.0
                            }
                        }
                    }
                }
            }
            JOINT RightShoulder
            {
                OFFSET -16.908462524414062 0.0 0.0
                CHANNELS 3 Zrotation Xrotation Yrotation
                JOINT RightElbow
                {
                    OFFSET -25.48190689086914 0.0 0.0
                    CHANNELS 3 Zrotation Xrotation Yrotation
                    JOINT RightWrist
                    {
                        OFFSET -25.959964752197266 0.0 0.0
                        CHANNELS 3 Zrotation Xrotation Yrotation
                        JOINT RightHand
                        {
                            OFFSET -2.8886895179748535 0.0 0.0
                            CHANNELS 3 Zrotation Xrotation Yrotation
                            End Site
                            {
                                OFFSET -1.1554758548736572 0.0 0.0
                            }
                        }
                    }
                }
            }
            End Site
            {
                OFFSET 0.0 11.499417304992676 0.0
            }
        }
    }
    JOINT LeftHip
    {
        OFFSET 12.546346664428711 0.0 0.0
        CHANNELS 3 Zrotation Xrotation Yrotation
        JOINT LeftKnee
        {
            OFFSET 0.0 -39.03428268432617 0.0
            CHANNELS 3 Zrotation Xrotation Yrotation
            JOINT LeftAnkle
            {
                OFFSET 0.0 -38.04364013671875 0.0
                CHANNELS 3 Zrotation Xrotation Yrotation
                JOINT LeftFoot
                {
                    OFFSET 0.0 -10.786394119262695 0.0
                    CHANNELS 3 Zrotation Xrotation Yrotation
                    End Site
                    {
                        OFFSET 0.0 0.0 4.314557075500488
                    }
                }
            }
        }
    }
    JOINT RightHip
    {
        OFFSET -12.546346664428711 0.0 0.0
        CHANNELS 3 Zrotation Xrotation Yrotation
        JOINT RightKnee
        {
            OFFSET 0.0 -39.03428268432617 0.0
            CHANNELS 3 Zrotation Xrotation Yrotation
            JOINT RightAnkle
            {
                OFFSET 0.0 -38.04364013671875 0.0
                CHANNELS 3 Zrotation Xrotation Yrotation
                JOINT RightFoot
                {
                    OFFSET 0.0 -10.786394119262695 0.0
                    CHANNELS 3 Zrotation Xrotation Yrotation
                    End Site
                    {
                        OFFSET 0.0 0.0 4.314557075500488
                    }
                }
            }
        }
    }
}
MOTION
Frames: 5
Frame Time: 0.03333333333333333
105.49999237060547 -13.500000953674316 -60.29999923706055 32.34739062909365 4.294543501210343 -86.74348265515029 0.41483407629291164 2.094548211769089 -0.06685242339860895 -1.3264428378657911e-06 5.013644495629744e-07 5.990830816593851 113.8297218828226 64.85525097654813 -119.56994176472723 -1.2300726386715664e-06 -2.8639436903402964e-06 137.99554964189903 2.6544855450189864e-06 -37.95834510327965 68.40395634187634 0.0 0.0 0.0 -98.44389856150947 62.6187108297069 52.80336501135394 2.547430629716764e-06 9.215440056125747e-07 -135.6832062908738 -179.99999758338214 -11.559627721170493 129.04797624484905 -6.361109362927033e-15 -5.29668755766019e-31 9.541664044390549e-15 -5.516003804760945 -63.445782317435324 21.957204554446648 28.80630736276933 41.51127698370678 -57.86273465000395 99.50494745921196 -65.98639272260957 145.69031532138078 0.0 6.3611093629270335e-15 0.0 -9.96361972192727 -59.20094638705172 -33.84108637498916 -41.41149763236812 47.7716084051327 88.54676425593786 -90.36146287558913 -44.25730971950386 -142.78498391509663 0.0 0.0 0.0
105.79999542236328 -13.899999618530273 -61.400001525878906 31.890783726745116 4.316021924947569 -86.69822311847764 0.21874099092535387 1.453361595608855 -0.04020316572519638 7.682767245772886e-07 6.43684192159715e-07 5.594911438465814 108.9079124034807 64.22257518459318 -110.27393006480959 -1.9519677848272574e-06 -3.5005774052194104e-06 138.6195525038589 -4.036412508771975e-06 -39.64262464353033 68.5393420966539 3.1805546814635176e-15 6.7586786981099735e-15 -6.3611093629270335e-15 -99.02888734807567 61.69380935019106 52.68096005479345 -1.4037996367543036e-06 3.207970461708553e-06 -135.96686120490588 -179.99999870865213 -14.342861679049632 130.3523933038115 -1.2722218725854067e-14 3.1805546814635176e-15 -6.3611093629270335e-15 -3.7850339955382957 -63.97515012282385 24.43019164618472 30.76446264082322 41.97938949591243 -60.96549578389991 99.82632982543683 -64.27534925621295 146.79890032256188 -6.3611093629270335e-15 -1.7655625192200634e-31 3.1805546814635168e-15 -9.872289814939357 -57.044365312732054 -32.198529132875976 -41.57312050713584 46.89803384390081 90.0614600521444 -92.54356747062906 -41.91861809744233 -146.84791010732044 8.827812596100317e-32 6.361109362927033e-15 -1.5902773407317582e-15
106.20000457763672 -14.399999618530273 -62.69999694824219 31.14861735884552 4.838127233963838 -86.44809658904724 0.10526664727121907 0.8700382094001912 -0.009364236439315393 -1.1564303440570888e-06 -1.085802236512727e-06 5.8512237475665705 105.68544610014838 62.019928507293464 -102.75669680987991 -3.608784680535998e-06 9.732555267844473e-07 139.62424784526465 -6.766952311845786e-07 -42.00608246398655 66.86411465237131 1.5902773407317584e-15 0.0 0.0 -99.03557980700302 61.2123540968674 53.24289925678855 1.9864241387165287e-06 -4.026053478051779e-06 -136.48470002021867 -179.99999700235222 -13.881981925937028 131.10979104983818 6.3611093629270335e-15 -6.3611093629270335e-15 7.951386703658796e-16 -2.230226637804339 -64.40412421371033 25.156798831627718 32.55764856267364 43.03664363009955 -64.3538596631879 99.71579832197298 -61.319994049045455 147.20951348319412 -6.361109362927035e-15 1.7655625192200634e-31 -3.1805546814635176e-15 -9.265529324298196 -54.70109505717809 -29.841950480070324 -39.51978053990636 47.050944779458824 89.71175135125642 -93.29109744336026 -39.9144777724977 -148.43096496878178 -1.5902773407317584e-15 -3.1805546814635168e-15 -1.5902773407317584e-15
106.5999984741211 -15.09999942779541 -63.900001525878906 29.945665503132176 4.30898096988456 -86.7536131170823 -0.9931088578068811 1.4132784782950414 0.01635301391620854 1.3006950579475458e-06 -2.298183044700383e-06 6.228516204401478 103.19889242045339 59.697498040909736 -96.97532718385443 9.904439308996021e-07 -6.647143125262932e-07 140.87791722130402 4.735112092837479e-07 -40.81639625358992 67.14280926147973 -2.758691436281349e-33 9.939233379573489e-17 3.1805546814635164e-15 -97.68092759831426 60.778730953705455 52.93565182220015 1.5765306247753443e-06 -3.6684823234897566e-06 -137.03379009624882 -179.99999988589119 -13.687383060800448 132.8704467919611 6.361109362927033e-15 4.4139062980501586e-32 7.951386703658791e-16 -0.7723183871154534 -64.42008821928569 27.057218318524004 35.351384443433574 44.25997736849324 -68.92243351894861 98.66985083729531 -58.01762776953827 146.87211424440295 0.0 -1.5902773407317584e-15 0.0 -9.172976137834814 -52.223298442727554 -27.713338017894582 -35.7991797156392 47.577194666826514 85.72206241917532 -93.30747432068536 -38.951015700723126 -148.42774098239292 4.770832022195275e-15 1.9862578341225716e-31 4.770832022195275e-15
106.9000015258789 -15.700000762939453 -65.10000610351562 28.739784487645963 4.313365879537289 -86.82201945022685 -1.2044129222329212 1.2914431667932844 0.014638355866568016 2.3294932340301948e-08 -2.0319314539078533e-06 5.60785561104 104.6971264837889 57.47344351637916 -96.23860016041584 1.2444447101196952e-06 2.6872129729813198e-06 142.19638951747544 1.826342668578652e-06 -39.69796622016909 66.09264619820814 1.5902773407317584e-15 -6.3611093629270335e-15 3.1805546814635168e-15 -98.82883105456894 59.683964492027464 55.4807839350311 2.6160196214512428e-06 -3.1057655004905373e-06 -137.68252381569093 -179.99999908046567 -17.755549255497094 132.14480258884046 0.0 0.0 -1.5902773407317588e-15 -0.27003543276637726 -64.36396323864238 27.96837739066614 38.675758372291995 44.41226035682946 -73.24212925425564 98.9331881779593 -55.17169544274502 148.51877529053237 6.361109362927032e-15 3.180554681463516e-15 3.180554681463516e-15 -9.00568377303227 -49.24665195265304 -24.527335068835185 -27.244534386089672 48.056548664051505 75.62289956856264 -99.56977545833729 -38.06421806748105 -153.14777781272215 4.770832022195275e-15 0.0 0.0
